<svg xmlns="http://www.w3.org/2000/svg" width="1024" height="1024" viewBox="0 0 1024 1024"><g transform="translate(329.05,348.70) scale(1.09819) translate(0,387) scale(0.1,-0.1)" fill="#f3ebd9"><path d="M1029 3794 c-364 -65 -709 -352 -819 -682 -77 -229 -21 -523 127 -663 241 -228 711 -164 849 116 41 85 42 203 1 286 -55 114 -173 201 -323 239 -91 24 -138 24 -219 5 -94 -23 -141 -20 -161 10 -15 23 -15 28 11 92 92 233 225 359 431 410 114 28 388 25 479 -5 220 -74 366 -238 453 -512 75 -236 90 -545 39 -784 -70 -324 -224 -671 -420 -941 -283 -389 -612 -685 -1180 -1060 -130 -85 -237 -159 -237 -163 0 -17 36 -92 44 -92 6 0 132 60 280 134 1255 622 2021 1328 2203 2031 38 148 40 418 5 582 -97 447 -371 773 -770 917 -236 84 -578 119 -793 80z M2949 3416 c-165 -59 -216 -266 -99 -400 150 -171 430 -62 430 168 0 169 -172 289 -331 232z M2949 2376 c-221 -79 -213 -404 12 -470 65 -20 83 -20 145 -1 105 31 174 126 174 239 0 169 -172 289 -331 232z"/></g></svg>